<svg width="300" height="200" viewBox="0 0 300 200" fill="none" xmlns="http://www.w3.org/2000/svg">
  <g transform="rotate(-15 150 100)">
    <rect x="40" y="30" width="180" height="120" rx="8" fill="#FFFFFF" stroke="#DDDDDD" stroke-width="2"/>
    <line x1="60" y1="60" x2="200" y2="60" stroke="#EEEEEE" stroke-width="4"/>
    <line x1="60" y1="80" x2="180" y2="80" stroke="#EEEEEE" stroke-width="4"/>
    <line x1="60" y1="100" x2="160" y2="100" stroke="#EEEEEE" stroke-width="4"/>
  </g>
  <g transform="rotate(-5 150 100)">
    <rect x="60" y="50" width="180" height="120" rx="8" fill="#FFFFFF" stroke="#DDDDDD" stroke-width="2"/>
    <line x1="80" y1="80" x2="220" y2="80" stroke="#EEEEEE" stroke-width="4"/>
    <line x1="80" y1="100" x2="200" y2="100" stroke="#EEEEEE" stroke-width="4"/>
    <line x1="80" y1="120" x2="180" y2="120" stroke="#EEEEEE" stroke-width="4"/>
  </g>
  <g transform="rotate(5 150 100)">
    <rect x="80" y="70" width="180" height="120" rx="8" fill="#FFFFFF" stroke="#DDDDDD" stroke-width="2"/>
    <line x1="100" y1="100" x2="240" y2="100" stroke="#EEEEEE" stroke-width="4"/>
    <line x1="100" y1="120" x2="220" y2="120" stroke="#EEEEEE" stroke-width="4"/>
    <line x1="100" y1="140" x2="200" y2="140" stroke="#EEEEEE" stroke-width="4"/>
  </g>
</svg> 