<svg width="113" height="115" viewBox="0 0 113 115" fill="none" xmlns="http://www.w3.org/2000/svg">
<g filter="url(#filter0_f_969_508)">
<rect x="39.377" y="28.5161" width="48.5854" height="48.5116" rx="16.1951" transform="rotate(15 39.377 28.5161)" fill="#FFAF99"/>
</g>
<path d="M47.0068 12.3285C50.7597 13.3341 53.4669 16.2944 54.3263 19.8206C54.9974 22.5743 56.4837 25.4936 59.2214 26.2272L76.571 30.876C83.5115 32.7357 86.9819 33.6655 89.2709 35.7265C91.2843 37.5394 92.6721 39.9432 93.2355 42.5933C93.8759 45.6061 92.9459 49.0765 91.0862 56.017L90.09 59.7348C88.2303 66.6752 87.3005 70.1457 85.2395 72.4347C83.4266 74.4481 81.0228 75.8359 78.3727 76.3992C75.3598 77.0396 71.8895 76.1096 64.949 74.2499L42.6424 68.2729C35.7019 66.4132 32.2315 65.4834 29.9425 63.4224C27.9291 61.6095 26.5412 59.2057 25.9779 56.5556C25.3375 53.5427 26.2675 50.0724 28.1272 43.1319L34.4363 19.586C35.9034 14.1107 41.5314 10.8613 47.0068 12.3285Z" fill="#D9D9D9"/>
<path d="M47.0068 12.3285C50.7597 13.3341 53.4669 16.2944 54.3263 19.8206C54.9974 22.5743 56.4837 25.4936 59.2214 26.2272L76.571 30.876C83.5115 32.7357 86.9819 33.6655 89.2709 35.7265C91.2843 37.5394 92.6721 39.9432 93.2355 42.5933C93.8759 45.6061 92.9459 49.0765 91.0862 56.017L90.09 59.7348C88.2303 66.6752 87.3005 70.1457 85.2395 72.4347C83.4266 74.4481 81.0228 75.8359 78.3727 76.3992C75.3598 77.0396 71.8895 76.1096 64.949 74.2499L42.6424 68.2729C35.7019 66.4132 32.2315 65.4834 29.9425 63.4224C27.9291 61.6095 26.5412 59.2057 25.9779 56.5556C25.3375 53.5427 26.2675 50.0724 28.1272 43.1319L34.4363 19.586C35.9034 14.1107 41.5314 10.8613 47.0068 12.3285Z" fill="url(#paint0_radial_969_508)"/>
<path d="M55.0449 10.2638C56.4904 11.2155 57.0866 12.9026 57.1242 14.6262C57.1645 16.4765 56.5817 18.5528 55.5151 20.386C54.5721 22.0067 53.2189 23.4893 51.5066 24.4694C51.5196 24.4849 51.5317 24.5012 51.5448 24.5167L51.7847 24.7774C53.0293 26.0207 54.9032 26.3191 56.7013 26.033C57.6449 25.8829 58.4989 25.579 59.1244 25.2274C59.4371 25.0516 59.6721 24.8759 59.829 24.7201C59.9113 24.6385 59.9607 24.5731 59.9901 24.5277L60.0301 24.4512L60.0605 24.3582C60.2336 23.9022 60.7271 23.642 61.2083 23.7708C61.6896 23.8998 61.988 24.3722 61.9098 24.8537L61.8887 24.949L61.8368 25.1167C61.6975 25.4986 61.4493 25.8227 61.1845 26.0855C60.8748 26.3928 60.4899 26.6676 60.0685 26.9046C59.2253 27.3786 58.1492 27.7513 57.0027 27.9337C54.8105 28.2823 52.0942 27.9631 50.25 25.9578L50.0745 25.7593C49.9376 25.5972 49.8077 25.4311 49.6826 25.2645C47.9972 25.787 46.0921 25.8256 44.0326 25.1783L43.5234 25.0057C38.8369 23.2951 36.9528 19.4667 37.075 15.9018C37.1937 12.4408 39.2522 8.99254 42.6424 8.30185L42.7406 8.28766C43.2257 8.23935 43.6783 8.56555 43.7777 9.05359C43.8833 9.57408 43.5472 10.0819 43.0267 10.1879L42.8188 10.2358C40.6911 10.794 39.0948 13.1561 38.9983 15.9677C38.9023 18.7666 40.3395 21.7949 44.1834 23.198L44.6034 23.3414C46.0917 23.8104 47.4376 23.8333 48.6321 23.5562C47.1379 20.5372 47.1927 17.1425 48.0563 14.5126C48.5968 12.8669 49.4854 11.4199 50.6191 10.5342C51.7909 9.61897 53.2797 9.2857 54.7442 10.0843L55.0449 10.2638ZM53.9747 11.8649L53.8227 11.7732C53.1733 11.4192 52.5081 11.5007 51.8032 12.0514C51.06 12.6321 50.3477 13.704 49.8849 15.1132C49.1317 17.4072 49.1212 20.3283 50.4367 22.8623C51.8555 22.0822 53.023 20.8422 53.8518 19.4178C54.7683 17.8425 55.2318 16.1116 55.2003 14.6677C55.1705 13.3029 54.7156 12.3516 53.9747 11.8649Z" fill="black"/>
<path d="M42.9296 39.1294L43.9258 35.4116C44.0633 34.8983 43.7587 34.3707 43.2454 34.2331C42.732 34.0956 42.2044 34.4002 42.0669 34.9135L41.0707 38.6313C40.9332 39.1446 41.2378 39.6722 41.7511 39.8098C42.2644 39.9473 42.792 39.6427 42.9296 39.1294Z" fill="black"/>
<path d="M52.8456 41.7861L53.8418 38.0684C53.9793 37.555 53.6747 37.0274 53.1614 36.8899C52.6481 36.7523 52.1204 37.057 51.9829 37.5703L50.9867 41.288C50.8492 41.8014 51.1538 42.329 51.6671 42.4665C52.1804 42.6041 52.7081 42.2994 52.8456 41.7861Z" fill="black"/>
<path d="M40.3435 46.4053L50.4346 49.1092C51.8034 49.476 52.6262 50.887 52.1247 52.2124C50.5455 56.3859 47.3546 61.5662 42.2011 60.1853C36.8849 58.7609 36.41 52.5439 37.4602 48.0002C37.7541 46.7286 39.0828 46.0675 40.3435 46.4053Z" fill="black"/>
<defs>
<filter id="filter0_f_969_508" x="0.136106" y="1.8313" width="112.856" height="112.803" filterUnits="userSpaceOnUse" color-interpolation-filters="sRGB">
<feFlood flood-opacity="0" result="BackgroundImageFix"/>
<feBlend mode="normal" in="SourceGraphic" in2="BackgroundImageFix" result="shape"/>
<feGaussianBlur stdDeviation="15.1829" result="effect1_foregroundBlur_969_508"/>
</filter>
<radialGradient id="paint0_radial_969_508" cx="0" cy="0" r="1" gradientUnits="userSpaceOnUse" gradientTransform="translate(87.2556 80.227) rotate(-121.931) scale(80.7865 59.9387)">
<stop stop-color="#F7643C"/>
<stop offset="0.147791" stop-color="#FD724C"/>
<stop offset="1" stop-color="#FEBE5F"/>
</radialGradient>
</defs>
</svg>
