<svg width="300" height="200" viewBox="0 0 300 200" fill="none" xmlns="http://www.w3.org/2000/svg">
  <g transform="translate(150, 100) scale(0.9) translate(-150, -100)">
    <!-- Folder -->
    <path d="M40 50C40 44.4772 44.4772 40 50 40H120L140 60H250C255.523 60 260 64.4772 260 70V160C260 165.523 255.523 170 250 170H50C44.4772 170 40 165.523 40 160V50Z" fill="#4A9FFF" />
    <path d="M40 50C40 44.4772 44.4772 40 50 40H120L140 60H250C255.523 60 260 64.4772 260 70V160C260 165.523 255.523 170 250 170H50C44.4772 170 40 165.523 40 160V50Z" fill="#4A9FFF" />
    
    <!-- Magnifying Glass -->
    <circle cx="220" cy="80" r="30" fill="white" stroke="#333333" stroke-width="4"/>
    <line x1="242" y1="102" x2="260" y2="120" stroke="#333333" stroke-width="4" stroke-linecap="round"/>
    
    <!-- Document -->
    <rect x="80" y="80" width="80" height="100" rx="4" fill="white" stroke="#333333" stroke-width="2"/>
    <line x1="100" y1="100" x2="140" y2="100" stroke="#333333" stroke-width="2"/>
    <line x1="100" y1="120" x2="140" y2="120" stroke="#333333" stroke-width="2"/>
    <line x1="100" y1="140" x2="140" y2="140" stroke="#333333" stroke-width="2"/>
    <line x1="100" y1="160" x2="120" y2="160" stroke="#333333" stroke-width="2"/>
  </g>
</svg> 