<svg width="52" height="56" viewBox="0 0 52 56" fill="none" xmlns="http://www.w3.org/2000/svg">
<path d="M16.3929 3.66735C19.8928 1.65847 21.6428 0.654034 23.5032 0.260891C25.1493 -0.0869636 26.8506 -0.0869636 28.4968 0.260891C30.3572 0.654034 32.1072 1.65847 35.6071 3.66735L42.3929 7.56225C45.8928 9.57113 47.6428 10.5756 48.9155 11.9808C50.0415 13.2241 50.8922 14.6889 51.4122 16.2801C52 18.0785 52 20.0873 52 24.1051V31.8949C52 35.9127 52 37.9215 51.4122 39.7199C50.8922 41.3111 50.0415 42.7759 48.9155 44.0192C47.6428 45.4244 45.8928 46.4289 42.3929 48.4377L35.6071 52.3327C32.1072 54.3415 30.3572 55.346 28.4968 55.7391C26.8506 56.087 25.1493 56.087 23.5032 55.7391C21.6428 55.346 19.8928 54.3415 16.3929 52.3327L9.60711 48.4377C6.1072 46.4289 4.35724 45.4244 3.08454 44.0192C1.95846 42.7759 1.10781 41.3111 0.587757 39.7199C0 37.9215 0 35.9127 0 31.8949V24.1051C0 20.0873 0 18.0785 0.587757 16.2801C1.10781 14.6889 1.95846 13.2241 3.08454 11.9808C4.35724 10.5756 6.1072 9.57113 9.60711 7.56225L16.3929 3.66735Z" fill="url(#paint0_radial_810_23756)"/>
<path d="M46.0765 18.3934C47.054 18.4043 47.8489 18.8637 48.347 19.7049C48.9133 20.6614 48.9134 22.3418 48.9134 25.702V34.9949C48.9134 35.3898 48.9106 35.7498 48.9085 36.0809L48.9134 36.0789C48.9134 36.1627 48.9108 36.2472 48.9075 36.3319C48.893 37.7295 48.8292 38.5931 48.5355 39.4285C48.2034 40.3728 47.6735 41.2908 47.0218 42.0506C46.5431 42.6086 45.9675 43.0378 45.098 43.575C44.8226 43.7925 44.5403 43.9887 44.2503 44.1561L41.0511 46.0028C41.0077 46.0278 40.972 46.008 40.972 45.9578V45.6346C40.972 43.1398 42.5642 40.1552 44.639 38.6014V29.4344C44.639 28.3143 44.6383 27.7542 44.4495 27.4354C44.2835 27.155 44.0186 27.0015 43.6927 26.9979C43.3222 26.9939 42.8374 27.2748 41.8675 27.8348L39.262 29.3387C37.3222 30.4587 36.3516 31.0189 35.6107 31.8826C34.959 32.6424 34.429 33.5605 34.097 34.5047C33.7196 35.5782 33.72 36.6984 33.72 38.9383V50.1668L30.5355 52.0057C29.5654 52.5657 29.0798 52.8457 28.7093 52.8416C28.3836 52.8379 28.1184 52.6845 27.9525 52.4041C27.7639 52.0852 27.764 51.5247 27.764 50.4051V39.5125C27.764 35.5922 27.7644 33.6316 28.4251 31.7528C29.0063 30.1002 29.9329 28.4935 31.0735 27.1639C32.3703 25.6523 34.0683 24.6728 37.4632 22.7127L40.5989 20.9022C43.509 19.222 44.965 18.3812 46.0765 18.3934Z" fill="white"/>
<defs>
<radialGradient id="paint0_radial_810_23756" cx="0" cy="0" r="1" gradientUnits="userSpaceOnUse" gradientTransform="translate(10 61.5) rotate(-52.3448) scale(63.6641 146.14)">
<stop stop-color="#F7643C"/>
<stop offset="0.425895" stop-color="#FD724C"/>
<stop offset="0.93198" stop-color="#FEBE5F"/>
</radialGradient>
</defs>
</svg>
