<?xml version="1.0" encoding="UTF-8"?>
<!DOCTYPE svg PUBLIC "-//W3C//DTD SVG 1.1//EN" "http://www.w3.org/Graphics/SVG/1.1/DTD/svg11.dtd">
<svg xmlns="http://www.w3.org/2000/svg" version="1.1" width="280px" height="70px" style="shape-rendering:geometricPrecision; text-rendering:geometricPrecision; image-rendering:optimizeQuality; fill-rule:evenodd; clip-rule:evenodd" xmlns:xlink="http://www.w3.org/1999/xlink">
<g><path style="opacity:1" fill="#eceeec" d="M -0.5,-0.5 C 92.8333,-0.5 186.167,-0.5 279.5,-0.5C 279.5,22.8333 279.5,46.1667 279.5,69.5C 211.5,69.5 143.5,69.5 75.5,69.5C 75.5,68.8333 75.5,68.1667 75.5,67.5C 76.8321,57.1882 77.4988,46.5216 77.5,35.5C 77.4988,24.4784 76.8321,13.8118 75.5,3.5C 52.8333,3.5 30.1667,3.5 7.5,3.5C 6.16788,13.8118 5.50121,24.4784 5.5,35.5C 5.50121,46.5216 6.16788,57.1882 7.5,67.5C 7.5,68.1667 7.5,68.8333 7.5,69.5C 4.83333,69.5 2.16667,69.5 -0.5,69.5C -0.5,46.1667 -0.5,22.8333 -0.5,-0.5 Z"/></g>
<g><path style="opacity:1" fill="#8e564e" d="M 7.5,3.5 C 30.1667,3.5 52.8333,3.5 75.5,3.5C 75.5,4.16667 75.5,4.83333 75.5,5.5C 74.8333,5.5 74.1667,5.5 73.5,5.5C 52.1667,5.5 30.8333,5.5 9.5,5.5C 8.83333,5.5 8.16667,5.5 7.5,5.5C 7.5,4.83333 7.5,4.16667 7.5,3.5 Z"/></g>
<g><path style="opacity:1" fill="#cab1a8" d="M 7.5,3.5 C 7.5,4.16667 7.5,4.83333 7.5,5.5C 7.5,26.1667 7.5,46.8333 7.5,67.5C 6.16788,57.1882 5.50121,46.5216 5.5,35.5C 5.50121,24.4784 6.16788,13.8118 7.5,3.5 Z"/></g>
<g><path style="opacity:1" fill="#c7a99c" d="M 75.5,3.5 C 76.8321,13.8118 77.4988,24.4784 77.5,35.5C 77.4988,46.5216 76.8321,57.1882 75.5,67.5C 75.5,46.8333 75.5,26.1667 75.5,5.5C 75.5,4.83333 75.5,4.16667 75.5,3.5 Z"/></g>
<g><path style="opacity:1" fill="#bfada2" d="M 159.5,21.5 C 156.833,21.5 154.167,21.5 151.5,21.5C 152.334,20.2521 153.667,19.5854 155.5,19.5C 157.333,19.5854 158.666,20.2521 159.5,21.5 Z"/></g>
<g><path style="opacity:1" fill="#c3ada4" d="M 207.5,21.5 C 202.167,21.5 196.833,21.5 191.5,21.5C 193.743,20.1883 196.41,19.5217 199.5,19.5C 202.59,19.5217 205.257,20.1883 207.5,21.5 Z"/></g>
<g><path style="opacity:1" fill="#6d2624" d="M 263.5,21.5 C 266.167,22.1667 266.167,22.8333 263.5,23.5C 259.671,22.931 256.337,23.5977 253.5,25.5C 253.5,26.8333 253.5,28.1667 253.5,29.5C 252.167,29.5 250.833,29.5 249.5,29.5C 249.5,26.8333 249.5,24.1667 249.5,21.5C 254.167,21.5 258.833,21.5 263.5,21.5 Z"/></g>
<g><path style="opacity:1" fill="#712726" d="M 127.5,25.5 C 126.964,28.6981 127.631,31.3647 129.5,33.5C 129.5,35.5 129.5,37.5 129.5,39.5C 127.692,40.9179 127.025,42.9179 127.5,45.5C 127.5,46.8333 127.5,48.1667 127.5,49.5C 124.266,50.576 120.932,51.2427 117.5,51.5C 116.934,49.9217 115.934,48.5884 114.5,47.5C 113.534,45.604 113.201,43.604 113.5,41.5C 113.5,37.5 113.5,33.5 113.5,29.5C 113.5,28.1667 113.5,26.8333 113.5,25.5C 114.768,22.6064 117.102,21.2731 120.5,21.5C 123.898,21.2731 126.232,22.6064 127.5,25.5 Z"/></g>
<g><path style="opacity:1" fill="#640f18" d="M 133.5,21.5 C 134.167,21.5 134.833,21.5 135.5,21.5C 135.5,24.1667 135.5,26.8333 135.5,29.5C 133.631,27.3647 132.964,24.6981 133.5,21.5 Z"/></g>
<g><path style="opacity:1" fill="#b19191" d="M 191.5,23.5 C 193.483,23.1568 194.817,23.8235 195.5,25.5C 193.517,25.8432 192.183,25.1765 191.5,23.5 Z"/></g>
<g><path style="opacity:1" fill="#a57f77" d="M 205.5,23.5 C 204.817,25.1765 203.483,25.8432 201.5,25.5C 202.183,23.8235 203.517,23.1568 205.5,23.5 Z"/></g>
<g><path style="opacity:1" fill="#b28484" d="M 263.5,23.5 C 260.663,25.4023 257.329,26.069 253.5,25.5C 256.337,23.5977 259.671,22.931 263.5,23.5 Z"/></g>
<g><path style="opacity:1" fill="#702726" d="M 109.5,27.5 C 109.5,28.1667 109.5,28.8333 109.5,29.5C 108.167,29.5 106.833,29.5 105.5,29.5C 105.5,28.1667 105.5,26.8333 105.5,25.5C 100.555,24.6765 97.8882,26.6765 97.5,31.5C 96.1667,31.5 94.8333,31.5 93.5,31.5C 93.8036,23.5267 97.8036,20.5267 105.5,22.5C 107.261,23.9166 108.594,25.5833 109.5,27.5 Z"/></g>
<g><path style="opacity:1" fill="#a77577" d="M 127.5,25.5 C 129.369,27.6353 130.036,30.3019 129.5,33.5C 127.631,31.3647 126.964,28.6981 127.5,25.5 Z"/></g>
<g><path style="opacity:1" fill="#e7e7e2" d="M 161.5,27.5 C 161.5,32.8333 161.5,38.1667 161.5,43.5C 160.554,46.3126 158.554,47.646 155.5,47.5C 155.5,44.8333 155.5,42.1667 155.5,39.5C 155.5,38.8333 155.5,38.1667 155.5,37.5C 155.5,33.5 155.5,29.5 155.5,25.5C 158.082,25.0254 160.082,25.6921 161.5,27.5 Z"/></g>
<g><path style="opacity:1" fill="#671e20" d="M 191.5,21.5 C 196.833,21.5 202.167,21.5 207.5,21.5C 207.5,22.8333 206.833,23.5 205.5,23.5C 203.517,23.1568 202.183,23.8235 201.5,25.5C 201.5,27.5 201.5,29.5 201.5,31.5C 200.167,31.5 198.833,31.5 197.5,31.5C 197.975,28.9179 197.308,26.9179 195.5,25.5C 194.817,23.8235 193.483,23.1568 191.5,23.5C 191.5,22.8333 191.5,22.1667 191.5,21.5 Z"/></g>
<g><path style="opacity:1" fill="#a27b79" d="M 225.5,25.5 C 227.369,27.6353 228.036,30.3019 227.5,33.5C 225.631,31.3647 224.964,28.6981 225.5,25.5 Z"/></g>
<g><path style="opacity:1" fill="#d4bfbb" d="M 151.5,21.5 C 151.5,26.8333 151.5,32.1667 151.5,37.5C 150.188,35.2568 149.522,32.5902 149.5,29.5C 149.522,26.4098 150.188,23.7432 151.5,21.5 Z"/></g>
<g><path style="opacity:1" fill="#d7cac5" d="M 263.5,21.5 C 258.833,21.5 254.167,21.5 249.5,21.5C 249.5,24.1667 249.5,26.8333 249.5,29.5C 250.833,29.5 252.167,29.5 253.5,29.5C 253.5,30.1667 253.5,30.8333 253.5,31.5C 252.833,31.5 252.167,31.5 251.5,31.5C 249.824,32.1834 249.157,33.5168 249.5,35.5C 248.167,40.8333 246.833,46.1667 245.5,51.5C 246.141,41.1107 245.474,31.1107 243.5,21.5C 242.833,21.5 242.167,21.5 241.5,21.5C 244.768,20.1778 248.435,19.5112 252.5,19.5C 256.565,19.5112 260.232,20.1778 263.5,21.5 Z"/></g>
<g><path style="opacity:1" fill="#e1d9d4" d="M 105.5,29.5 C 105.62,30.5862 106.287,31.2528 107.5,31.5C 108.713,31.2528 109.38,30.5862 109.5,29.5C 109.5,28.8333 109.5,28.1667 109.5,27.5C 110.833,26.8333 112.167,26.1667 113.5,25.5C 113.5,26.8333 113.5,28.1667 113.5,29.5C 112.206,31.0478 111.539,33.0478 111.5,35.5C 111.539,37.9522 112.206,39.9522 113.5,41.5C 113.201,43.604 113.534,45.604 114.5,47.5C 115.934,48.5884 116.934,49.9217 117.5,51.5C 114.583,51.6349 111.916,50.9682 109.5,49.5C 109.5,44.8333 109.5,40.1667 109.5,35.5C 108.666,34.2521 107.333,33.5854 105.5,33.5C 103.667,33.5854 102.334,34.2521 101.5,35.5C 102.183,37.1765 103.517,37.8432 105.5,37.5C 105.813,40.2469 105.48,42.9135 104.5,45.5C 103.158,47.0049 101.492,47.6715 99.5,47.5C 98.5091,43.5365 97.5091,39.5365 96.5,35.5C 95.7348,34.3881 94.7348,33.7214 93.5,33.5C 93.5,32.8333 93.5,32.1667 93.5,31.5C 94.8333,31.5 96.1667,31.5 97.5,31.5C 97.8882,26.6765 100.555,24.6765 105.5,25.5C 105.5,26.8333 105.5,28.1667 105.5,29.5 Z"/></g>
<g><path style="opacity:1" fill="#9f7672" d="M 105.5,29.5 C 106.833,29.5 108.167,29.5 109.5,29.5C 109.38,30.5862 108.713,31.2528 107.5,31.5C 106.287,31.2528 105.62,30.5862 105.5,29.5 Z"/></g>
<g><path style="opacity:1" fill="#6e2625" d="M 187.5,39.5 C 187.5,41.5 187.5,43.5 187.5,45.5C 187.5,46.8333 187.5,48.1667 187.5,49.5C 186.167,49.5 184.833,49.5 183.5,49.5C 180.833,49.5 178.167,49.5 175.5,49.5C 172.292,47.9261 170.958,45.2594 171.5,41.5C 172.833,41.5 174.167,41.5 175.5,41.5C 175.888,46.3235 178.555,48.3235 183.5,47.5C 183.813,44.7531 183.48,42.0865 182.5,39.5C 179.476,37.9866 176.809,35.9866 174.5,33.5C 171.5,23.1667 175.167,19.5 185.5,22.5C 187.173,24.5225 187.84,26.8559 187.5,29.5C 186.167,29.5 184.833,29.5 183.5,29.5C 183.5,28.1667 183.5,26.8333 183.5,25.5C 180.293,25.1236 177.627,26.1236 175.5,28.5C 179.292,32.6359 183.292,36.3026 187.5,39.5 Z"/></g>
<g><path style="opacity:1" fill="#a77a77" d="M 197.5,31.5 C 198.833,31.5 200.167,31.5 201.5,31.5C 201.5,32.8333 201.5,34.1667 201.5,35.5C 200.167,35.5 198.833,35.5 197.5,35.5C 197.5,34.1667 197.5,32.8333 197.5,31.5 Z"/></g>
<g><path style="opacity:1" fill="#9d6f6c" d="M 109.5,35.5 C 106.833,35.5 104.167,35.5 101.5,35.5C 102.334,34.2521 103.667,33.5854 105.5,33.5C 107.333,33.5854 108.666,34.2521 109.5,35.5 Z"/></g>
<g><path style="opacity:1" fill="#e9e7e3" d="M 125.5,33.5 C 123.631,35.6353 122.964,38.3019 123.5,41.5C 123.5,43.5 123.5,45.5 123.5,47.5C 121.5,47.5 119.5,47.5 117.5,47.5C 117.5,46.1667 117.5,44.8333 117.5,43.5C 117.5,38.1667 117.5,32.8333 117.5,27.5C 117.97,26.3065 118.97,25.6399 120.5,25.5C 124.539,26.5637 126.206,29.2304 125.5,33.5 Z"/></g>
<g><path style="opacity:1" fill="#ccb8b3" d="M 161.5,27.5 C 162.812,29.7432 163.478,32.4098 163.5,35.5C 163.478,38.5902 162.812,41.2568 161.5,43.5C 161.5,38.1667 161.5,32.8333 161.5,27.5 Z"/></g>
<g><path style="opacity:1" fill="#985f5b" d="M 211.5,27.5 C 211.5,33.5 211.5,39.5 211.5,45.5C 210.184,42.9134 209.517,39.9134 209.5,36.5C 209.517,33.0866 210.184,30.0866 211.5,27.5 Z"/></g>
<g><path style="opacity:1" fill="#804542" d="M 113.5,29.5 C 113.5,33.5 113.5,37.5 113.5,41.5C 112.206,39.9522 111.539,37.9522 111.5,35.5C 111.539,33.0478 112.206,31.0478 113.5,29.5 Z"/></g>
<g><path style="opacity:1" fill="#cab0ab" d="M 125.5,33.5 C 126.036,36.6981 125.369,39.3647 123.5,41.5C 122.964,38.3019 123.631,35.6353 125.5,33.5 Z"/></g>
<g><path style="opacity:1" fill="#a2757a" d="M 133.5,21.5 C 132.964,24.6981 133.631,27.3647 135.5,29.5C 135.5,30.1667 135.5,30.8333 135.5,31.5C 133.541,37.7496 132.874,44.4163 133.5,51.5C 132.172,46.8806 131.506,41.8806 131.5,36.5C 131.506,31.1194 132.172,26.1194 133.5,21.5 Z"/></g>
<g><path style="opacity:1" fill="#ccb6b5" d="M 135.5,21.5 C 137.467,29.0968 138.134,37.0968 137.5,45.5C 140.698,44.9644 143.365,45.631 145.5,47.5C 142.167,47.5 138.833,47.5 135.5,47.5C 135.5,42.1667 135.5,36.8333 135.5,31.5C 135.5,30.8333 135.5,30.1667 135.5,29.5C 135.5,26.8333 135.5,24.1667 135.5,21.5 Z"/></g>
<g><path style="opacity:1" fill="#6b1f1e" d="M 151.5,21.5 C 154.167,21.5 156.833,21.5 159.5,21.5C 163.322,21.6486 165.655,23.6486 166.5,27.5C 167.833,32.8333 167.833,38.1667 166.5,43.5C 163.863,50.3827 158.863,53.0494 151.5,51.5C 151.5,47.5 151.5,43.5 151.5,39.5C 152.833,39.5 154.167,39.5 155.5,39.5C 155.5,42.1667 155.5,44.8333 155.5,47.5C 158.554,47.646 160.554,46.3126 161.5,43.5C 162.812,41.2568 163.478,38.5902 163.5,35.5C 163.478,32.4098 162.812,29.7432 161.5,27.5C 160.082,25.6921 158.082,25.0254 155.5,25.5C 155.5,29.5 155.5,33.5 155.5,37.5C 154.167,37.5 152.833,37.5 151.5,37.5C 151.5,32.1667 151.5,26.8333 151.5,21.5 Z"/></g>
<g><path style="opacity:1" fill="#b28d8b" d="M 117.5,27.5 C 117.5,32.8333 117.5,38.1667 117.5,43.5C 116.188,41.2568 115.522,38.5902 115.5,35.5C 115.522,32.4098 116.188,29.7432 117.5,27.5 Z"/></g>
<g><path style="opacity:1" fill="#cea39a" d="M 151.5,37.5 C 152.833,37.5 154.167,37.5 155.5,37.5C 155.5,38.1667 155.5,38.8333 155.5,39.5C 154.167,39.5 152.833,39.5 151.5,39.5C 151.5,38.8333 151.5,38.1667 151.5,37.5 Z"/></g>
<g><path style="opacity:1" fill="#956565" d="M 231.5,21.5 C 230.911,25.9707 231.577,29.9707 233.5,33.5C 233.5,34.1667 233.5,34.8333 233.5,35.5C 232.195,37.3972 231.529,39.7305 231.5,42.5C 231.529,45.2695 232.195,47.6028 233.5,49.5C 232.817,51.1765 231.483,51.8432 229.5,51.5C 228.859,41.1107 229.526,31.1107 231.5,21.5 Z"/></g>
<g><path style="opacity:1" fill="#743132" d="M 197.5,35.5 C 198.833,35.5 200.167,35.5 201.5,35.5C 201.5,40.8333 201.5,46.1667 201.5,51.5C 200.167,51.5 198.833,51.5 197.5,51.5C 197.5,46.1667 197.5,40.8333 197.5,35.5 Z"/></g>
<g><path style="opacity:1" fill="#6d2321" d="M 225.5,25.5 C 224.964,28.6981 225.631,31.3647 227.5,33.5C 227.697,38.9745 227.031,44.3078 225.5,49.5C 223.11,49.8551 220.777,50.5217 218.5,51.5C 215.215,50.5445 212.882,48.5445 211.5,45.5C 211.5,39.5 211.5,33.5 211.5,27.5C 211.617,23.0552 213.951,21.0552 218.5,21.5C 221.898,21.2731 224.232,22.6064 225.5,25.5 Z"/></g>
<g><path style="opacity:1" fill="#c8b1ab" d="M 221.5,27.5 C 222.816,30.0866 223.483,33.0866 223.5,36.5C 223.483,39.9134 222.816,42.9134 221.5,45.5C 221.5,39.5 221.5,33.5 221.5,27.5 Z"/></g>
<g><path style="opacity:1" fill="#e9e9e9" d="M 221.5,27.5 C 221.5,33.5 221.5,39.5 221.5,45.5C 220.082,47.3079 218.082,47.9746 215.5,47.5C 215.5,44.8333 215.5,42.1667 215.5,39.5C 215.5,36.1667 215.5,32.8333 215.5,29.5C 215.5,28.1667 215.5,26.8333 215.5,25.5C 218.082,25.0254 220.082,25.6921 221.5,27.5 Z"/></g>
<g><path style="opacity:1" fill="#b89091" d="M 215.5,29.5 C 215.5,32.8333 215.5,36.1667 215.5,39.5C 214.223,38.3064 213.556,36.6397 213.5,34.5C 213.556,32.3603 214.223,30.6936 215.5,29.5 Z"/></g>
<g><path style="opacity:1" fill="#a26e6b" d="M 129.5,39.5 C 129.975,42.0821 129.308,44.0821 127.5,45.5C 127.025,42.9179 127.692,40.9179 129.5,39.5 Z"/></g>
<g><path style="opacity:1" fill="#9c6663" d="M 187.5,39.5 C 188.693,39.9704 189.36,40.9704 189.5,42.5C 189.36,44.0296 188.693,45.0296 187.5,45.5C 187.5,43.5 187.5,41.5 187.5,39.5 Z"/></g>
<g><path style="opacity:1" fill="#601316" d="M 233.5,35.5 C 233.5,40.1667 233.5,44.8333 233.5,49.5C 232.195,47.6028 231.529,45.2695 231.5,42.5C 231.529,39.7305 232.195,37.3972 233.5,35.5 Z"/></g>
<g><path style="opacity:1" fill="#691d1e" d="M 231.5,21.5 C 232.833,21.5 234.167,21.5 235.5,21.5C 236.833,26.1667 238.167,30.8333 239.5,35.5C 240.183,37.1765 241.517,37.8432 243.5,37.5C 243.5,32.1667 243.5,26.8333 243.5,21.5C 245.474,31.1107 246.141,41.1107 245.5,51.5C 244.167,51.5 242.833,51.5 241.5,51.5C 241.386,49.2821 240.72,47.2821 239.5,45.5C 239.843,43.5168 239.176,42.1834 237.5,41.5C 237.181,38.194 235.847,35.5274 233.5,33.5C 231.577,29.9707 230.911,25.9707 231.5,21.5 Z"/></g>
<g><path style="opacity:1" fill="#a57975" d="M 241.5,21.5 C 242.167,21.5 242.833,21.5 243.5,21.5C 243.5,26.8333 243.5,32.1667 243.5,37.5C 241.517,37.8432 240.183,37.1765 239.5,35.5C 241.436,31.2853 242.103,26.6186 241.5,21.5 Z"/></g>
<g><path style="opacity:1" fill="#ba9f95" d="M 237.5,41.5 C 239.176,42.1834 239.843,43.5168 239.5,45.5C 237.824,44.8166 237.157,43.4832 237.5,41.5 Z"/></g>
<g><path style="opacity:1" fill="#6a1b19" d="M 251.5,31.5 C 252.167,31.5 252.833,31.5 253.5,31.5C 256.337,33.4023 259.671,34.069 263.5,33.5C 263.5,34.8333 263.5,36.1667 263.5,37.5C 260.833,37.5 258.167,37.5 255.5,37.5C 253.598,40.3373 252.931,43.6707 253.5,47.5C 257.5,47.5 261.5,47.5 265.5,47.5C 265.5,48.1667 265.5,48.8333 265.5,49.5C 260.833,49.5 256.167,49.5 251.5,49.5C 251.5,43.5 251.5,37.5 251.5,31.5 Z"/></g>
<g><path style="opacity:1" fill="#691f1e" d="M 135.5,31.5 C 135.5,36.8333 135.5,42.1667 135.5,47.5C 138.833,47.5 142.167,47.5 145.5,47.5C 146.167,47.5 146.833,47.5 147.5,47.5C 147.5,48.8333 147.5,50.1667 147.5,51.5C 142.833,51.5 138.167,51.5 133.5,51.5C 132.874,44.4163 133.541,37.7496 135.5,31.5 Z"/></g>
<g><path style="opacity:1" fill="#d5c0c0" d="M 151.5,39.5 C 151.5,43.5 151.5,47.5 151.5,51.5C 150.167,51.5 148.833,51.5 147.5,51.5C 147.5,50.1667 147.5,48.8333 147.5,47.5C 148.833,44.8333 150.167,42.1667 151.5,39.5 Z"/></g>
<g><path style="opacity:1" fill="#7b4141" d="M 251.5,31.5 C 251.5,37.5 251.5,43.5 251.5,49.5C 256.167,49.5 260.833,49.5 265.5,49.5C 260.604,51.4461 255.271,52.1128 249.5,51.5C 249.5,46.1667 249.5,40.8333 249.5,35.5C 249.157,33.5168 249.824,32.1834 251.5,31.5 Z"/></g>
<g><path style="opacity:1" fill="#ccb7ae" d="M 255.5,37.5 C 255.5,40.1667 255.5,42.8333 255.5,45.5C 259.329,44.931 262.663,45.5977 265.5,47.5C 261.5,47.5 257.5,47.5 253.5,47.5C 252.931,43.6707 253.598,40.3373 255.5,37.5 Z"/></g>
<g><path style="opacity:1" fill="#6e2524" d="M 93.5,33.5 C 94.7348,33.7214 95.7348,34.3881 96.5,35.5C 97.5091,39.5365 98.5091,43.5365 99.5,47.5C 101.492,47.6715 103.158,47.0049 104.5,45.5C 105.48,42.9135 105.813,40.2469 105.5,37.5C 103.517,37.8432 102.183,37.1765 101.5,35.5C 104.167,35.5 106.833,35.5 109.5,35.5C 109.5,40.1667 109.5,44.8333 109.5,49.5C 106.918,49.0254 104.918,49.6921 103.5,51.5C 98.6771,52.2265 95.6771,50.2265 94.5,45.5C 93.5091,41.5546 93.1758,37.5546 93.5,33.5 Z"/></g>
<g><path style="opacity:1" fill="#b08982" d="M 109.5,49.5 C 108.082,51.3079 106.082,51.9746 103.5,51.5C 104.918,49.6921 106.918,49.0254 109.5,49.5 Z"/></g>
<g><path style="opacity:1" fill="#894c4c" d="M 175.5,49.5 C 178.167,49.5 180.833,49.5 183.5,49.5C 182.666,50.7479 181.333,51.4146 179.5,51.5C 177.667,51.4146 176.334,50.7479 175.5,49.5 Z"/></g>
<g><path style="opacity:1" fill="#6a1d1d" d="M 7.5,5.5 C 8.16667,5.5 8.83333,5.5 9.5,5.5C 9.5,6.16667 9.5,6.83333 9.5,7.5C 9.5,26.8333 9.5,46.1667 9.5,65.5C 31.1928,66.1555 52.5262,65.4888 73.5,63.5C 73.5,44.1667 73.5,24.8333 73.5,5.5C 74.1667,5.5 74.8333,5.5 75.5,5.5C 75.5,26.1667 75.5,46.8333 75.5,67.5C 52.8333,67.5 30.1667,67.5 7.5,67.5C 7.5,46.8333 7.5,26.1667 7.5,5.5 Z"/></g>
<g><path style="opacity:1" fill="#8b4a45" d="M 9.5,7.5 C 10.1667,7.5 10.8333,7.5 11.5,7.5C 10.8509,21.8733 11.5176,35.8733 13.5,49.5C 12.424,52.7345 11.7573,56.0678 11.5,59.5C 12.8333,59.5 14.1667,59.5 15.5,59.5C 14.6649,60.9432 13.3316,61.9432 11.5,62.5C 16.8333,62.8333 22.1667,63.1667 27.5,63.5C 33.2109,63.4949 38.5442,62.8282 43.5,61.5C 44.8333,61.5 46.1667,61.5 47.5,61.5C 49.7432,62.8117 52.4098,63.4783 55.5,63.5C 58.5902,63.4783 61.2568,62.8117 63.5,61.5C 64.8333,61.5 66.1667,61.5 67.5,61.5C 68.1834,63.1765 69.5168,63.8432 71.5,63.5C 72.1667,63.5 72.8333,63.5 73.5,63.5C 52.5262,65.4888 31.1928,66.1555 9.5,65.5C 9.5,46.1667 9.5,26.8333 9.5,7.5 Z"/></g>
<g><path style="opacity:1" fill="#5d1112" d="M 47.5,61.5 C 52.1667,61.5 56.8333,61.5 61.5,61.5C 62.1667,61.5 62.8333,61.5 63.5,61.5C 61.2568,62.8117 58.5902,63.4783 55.5,63.5C 52.4098,63.4783 49.7432,62.8117 47.5,61.5 Z"/></g>
<g><path style="opacity:1" fill="#9d6263" d="M 67.5,57.5 C 68.5862,57.62 69.2528,58.2867 69.5,59.5C 69.2528,60.7133 68.5862,61.38 67.5,61.5C 67.5,60.1667 67.5,58.8333 67.5,57.5 Z"/></g>
<g><path style="opacity:1" fill="#f1eee9" d="M 55.5,53.5 C 56.1667,53.5 56.8333,53.5 57.5,53.5C 60.5553,55.1184 63.8886,56.4518 67.5,57.5C 67.5,58.8333 67.5,60.1667 67.5,61.5C 66.1667,61.5 64.8333,61.5 63.5,61.5C 62.8333,61.5 62.1667,61.5 61.5,61.5C 59.6028,60.1952 57.2695,59.5286 54.5,59.5C 51.7305,59.5286 49.3972,60.1952 47.5,61.5C 46.1667,61.5 44.8333,61.5 43.5,61.5C 43.354,58.4461 44.6874,56.4461 47.5,55.5C 50.6981,56.0356 53.3647,55.369 55.5,53.5 Z"/></g>
<g><path style="opacity:1" fill="#82464b" d="M 61.5,61.5 C 56.8333,61.5 52.1667,61.5 47.5,61.5C 49.3972,60.1952 51.7305,59.5286 54.5,59.5C 57.2695,59.5286 59.6028,60.1952 61.5,61.5 Z"/></g>
<g><path style="opacity:1" fill="#814549" d="M 55.5,47.5 C 55.5,49.5 55.5,51.5 55.5,53.5C 53.3647,55.369 50.6981,56.0356 47.5,55.5C 47.5,54.1667 47.5,52.8333 47.5,51.5C 48.7348,51.7214 49.7348,52.3881 50.5,53.5C 51.4287,52.3112 51.762,50.9778 51.5,49.5C 52.8333,48.8333 54.1667,48.1667 55.5,47.5 Z"/></g>
<g><path style="opacity:1" fill="#f5f1ed" d="M 21.5,37.5 C 22.1667,37.5 22.8333,37.5 23.5,37.5C 23.5,38.1667 23.5,38.8333 23.5,39.5C 23.5,42.8333 23.5,46.1667 23.5,49.5C 23.5,50.1667 23.5,50.8333 23.5,51.5C 26.3373,53.4023 29.6707,54.069 33.5,53.5C 34.8333,53.5 36.1667,53.5 37.5,53.5C 37.5,54.8333 37.5,56.1667 37.5,57.5C 33.6707,56.931 30.3373,57.5977 27.5,59.5C 26.1667,59.5 24.8333,59.5 23.5,59.5C 21.6547,52.3719 20.988,45.0386 21.5,37.5 Z"/></g>
<g><path style="opacity:1" fill="#743130" d="M 19.5,35.5 C 20.8333,35.5 21.5,36.1667 21.5,37.5C 20.988,45.0386 21.6547,52.3719 23.5,59.5C 22.2652,59.7214 21.2652,60.3881 20.5,61.5C 20.1038,57.7366 19.1038,54.4032 17.5,51.5C 19.0307,46.3078 19.6974,40.9745 19.5,35.5 Z"/></g>
<g><path style="opacity:1" fill="#e3d0cb" d="M 47.5,47.5 C 48.8333,47.5 50.1667,47.5 51.5,47.5C 51.5,48.1667 51.5,48.8333 51.5,49.5C 51.762,50.9778 51.4287,52.3112 50.5,53.5C 49.7348,52.3881 48.7348,51.7214 47.5,51.5C 47.5,50.1667 47.5,48.8333 47.5,47.5 Z"/></g>
<g><path style="opacity:1" fill="#af7c7d" d="M 39.5,49.5 C 40.0356,52.6981 39.369,55.3647 37.5,57.5C 37.5,56.1667 37.5,54.8333 37.5,53.5C 37.1568,51.5168 37.8235,50.1834 39.5,49.5 Z"/></g>
<g><path style="opacity:1" fill="#cfb8b7" d="M 37.5,35.5 C 39.4364,39.7147 40.1031,44.3814 39.5,49.5C 37.8235,50.1834 37.1568,51.5168 37.5,53.5C 36.1667,53.5 34.8333,53.5 33.5,53.5C 33.5,52.8333 33.5,52.1667 33.5,51.5C 35.369,49.3647 36.0356,46.6981 35.5,43.5C 37.369,41.3647 38.0356,38.6981 37.5,35.5 Z"/></g>
<g><path style="opacity:1" fill="#eae1dd" d="M 19.5,35.5 C 19.6974,40.9745 19.0307,46.3078 17.5,51.5C 16.8333,54.1667 16.1667,56.8333 15.5,59.5C 14.1667,59.5 12.8333,59.5 11.5,59.5C 11.7573,56.0678 12.424,52.7345 13.5,49.5C 13.5,48.8333 13.5,48.1667 13.5,47.5C 15.1765,46.8166 15.8432,45.4832 15.5,43.5C 15.5,42.1667 15.5,40.8333 15.5,39.5C 17.1765,38.8166 17.8432,37.4832 17.5,35.5C 18.1667,32.8333 18.8333,32.8333 19.5,35.5 Z"/></g>
<g><path style="opacity:1" fill="#661213" d="M 23.5,37.5 C 26.8333,37.5 30.1667,37.5 33.5,37.5C 35.3079,38.9179 35.9746,40.9179 35.5,43.5C 36.0356,46.6981 35.369,49.3647 33.5,51.5C 30.1667,51.5 26.8333,51.5 23.5,51.5C 23.5,50.8333 23.5,50.1667 23.5,49.5C 24.7773,48.3064 25.4439,46.6397 25.5,44.5C 25.4439,42.3603 24.7773,40.6936 23.5,39.5C 23.5,38.8333 23.5,38.1667 23.5,37.5 Z"/></g>
<g><path style="opacity:1" fill="#cdb5ac" d="M 47.5,41.5 C 52.8333,41.5 58.1667,41.5 63.5,41.5C 62.0821,43.3079 60.0821,43.9746 57.5,43.5C 57.5,46.8333 57.5,50.1667 57.5,53.5C 56.8333,53.5 56.1667,53.5 55.5,53.5C 55.5,51.5 55.5,49.5 55.5,47.5C 55.5,46.1667 55.5,44.8333 55.5,43.5C 52.3019,44.0356 49.6353,43.369 47.5,41.5 Z"/></g>
<g><path style="opacity:1" fill="#681a1c" d="M 63.5,27.5 C 64.4734,29.4469 65.4734,31.4469 66.5,33.5C 67.2652,34.6119 68.2652,35.2786 69.5,35.5C 71.4722,44.4401 72.1389,53.7734 71.5,63.5C 69.5168,63.8432 68.1834,63.1765 67.5,61.5C 68.5862,61.38 69.2528,60.7133 69.5,59.5C 69.2528,58.2867 68.5862,57.62 67.5,57.5C 63.8886,56.4518 60.5553,55.1184 57.5,53.5C 57.5,50.1667 57.5,46.8333 57.5,43.5C 60.0821,43.9746 62.0821,43.3079 63.5,41.5C 65.1765,40.8166 65.8432,39.4832 65.5,37.5C 62.8333,37.5 60.1667,37.5 57.5,37.5C 56.9644,34.3019 57.631,31.6353 59.5,29.5C 60.8333,28.8333 62.1667,28.1667 63.5,27.5 Z"/></g>
<g><path style="opacity:1" fill="#e5dccf" d="M 61.5,47.5 C 62.8333,47.5 64.1667,47.5 65.5,47.5C 65.5,48.8333 65.5,50.1667 65.5,51.5C 64.1667,51.5 62.8333,51.5 61.5,51.5C 61.5,50.1667 61.5,48.8333 61.5,47.5 Z"/></g>
<g><path style="opacity:1" fill="#b78a87" d="M 65.5,47.5 C 64.1667,47.5 62.8333,47.5 61.5,47.5C 61.62,46.4138 62.2867,45.7472 63.5,45.5C 64.7133,45.7472 65.38,46.4138 65.5,47.5 Z"/></g>
<g><path style="opacity:1" fill="#efece7" d="M 51.5,25.5 C 54.1667,25.5 56.8333,25.5 59.5,25.5C 59.5,26.8333 59.5,28.1667 59.5,29.5C 57.631,31.6353 56.9644,34.3019 57.5,37.5C 60.1667,37.5 62.8333,37.5 65.5,37.5C 65.8432,39.4832 65.1765,40.8166 63.5,41.5C 58.1667,41.5 52.8333,41.5 47.5,41.5C 47.5,40.8333 47.5,40.1667 47.5,39.5C 50.1667,39.5 52.8333,39.5 55.5,39.5C 56.0356,36.3019 55.369,33.6353 53.5,31.5C 52.2804,29.7179 51.6138,27.7179 51.5,25.5 Z"/></g>
<g><path style="opacity:1" fill="#ad8988" d="M 53.5,31.5 C 55.369,33.6353 56.0356,36.3019 55.5,39.5C 52.8333,39.5 50.1667,39.5 47.5,39.5C 48.9179,37.6921 50.9179,37.0254 53.5,37.5C 53.5,35.5 53.5,33.5 53.5,31.5 Z"/></g>
<g><path style="opacity:1" fill="#e9ddda" d="M 63.5,19.5 C 66.003,22.5017 68.003,25.8351 69.5,29.5C 69.5,31.5 69.5,33.5 69.5,35.5C 68.2652,35.2786 67.2652,34.6119 66.5,33.5C 65.4734,31.4469 64.4734,29.4469 63.5,27.5C 62.6532,25.9709 61.9865,24.3042 61.5,22.5C 61.6399,20.9704 62.3065,19.9704 63.5,19.5 Z"/></g>
<g><path style="opacity:1" fill="#651417" d="M 11.5,7.5 C 31.5111,7.16704 51.5111,7.50037 71.5,8.5C 70.3112,9.42869 68.9778,9.76202 67.5,9.5C 67.5,11.5 67.5,13.5 67.5,15.5C 68.8333,15.5 70.1667,15.5 71.5,15.5C 72.1031,20.6186 71.4364,25.2853 69.5,29.5C 68.003,25.8351 66.003,22.5017 63.5,19.5C 62.8333,18.1667 62.1667,16.8333 61.5,15.5C 61.8432,13.5168 61.1765,12.1834 59.5,11.5C 59.0296,10.3065 58.0296,9.63985 56.5,9.5C 54.9704,9.63985 53.9704,10.3065 53.5,11.5C 51.8235,12.1834 51.1568,13.5168 51.5,15.5C 50.8333,16.8333 50.1667,18.1667 49.5,19.5C 47.2521,24.0833 44.5855,28.4167 41.5,32.5C 41.7602,34.6175 42.7602,36.2842 44.5,37.5C 46.382,33.0452 48.7154,29.0452 51.5,25.5C 51.6138,27.7179 52.2804,29.7179 53.5,31.5C 53.5,33.5 53.5,35.5 53.5,37.5C 50.9179,37.0254 48.9179,37.6921 47.5,39.5C 47.5,40.1667 47.5,40.8333 47.5,41.5C 49.6353,43.369 52.3019,44.0356 55.5,43.5C 55.5,44.8333 55.5,46.1667 55.5,47.5C 54.1667,48.1667 52.8333,48.8333 51.5,49.5C 51.5,48.8333 51.5,48.1667 51.5,47.5C 51.38,46.4138 50.7133,45.7472 49.5,45.5C 48.2867,45.7472 47.62,46.4138 47.5,47.5C 47.5,48.8333 47.5,50.1667 47.5,51.5C 47.5,52.8333 47.5,54.1667 47.5,55.5C 44.6874,56.4461 43.354,58.4461 43.5,61.5C 38.5442,62.8282 33.2109,63.4949 27.5,63.5C 22.1667,63.1667 16.8333,62.8333 11.5,62.5C 13.3316,61.9432 14.6649,60.9432 15.5,59.5C 16.1667,56.8333 16.8333,54.1667 17.5,51.5C 19.1038,54.4032 20.1038,57.7366 20.5,61.5C 21.2652,60.3881 22.2652,59.7214 23.5,59.5C 24.8333,59.5 26.1667,59.5 27.5,59.5C 31.3293,60.069 34.6627,59.4023 37.5,57.5C 39.369,55.3647 40.0356,52.6981 39.5,49.5C 40.1031,44.3814 39.4364,39.7147 37.5,35.5C 36.2316,32.6064 33.8983,31.2731 30.5,31.5C 28.3603,31.5561 26.6936,32.2227 25.5,33.5C 23.8235,34.1834 23.1568,35.5168 23.5,37.5C 22.8333,37.5 22.1667,37.5 21.5,37.5C 21.5,36.1667 20.8333,35.5 19.5,35.5C 18.8333,32.8333 18.1667,32.8333 17.5,35.5C 15.8235,36.1834 15.1568,37.5168 15.5,39.5C 15.5,40.8333 15.5,42.1667 15.5,43.5C 13.8235,44.1834 13.1568,45.5168 13.5,47.5C 13.5,48.1667 13.5,48.8333 13.5,49.5C 11.5176,35.8733 10.8509,21.8733 11.5,7.5 Z"/></g>
<g><path style="opacity:1" fill="#a17373" d="M 37.5,57.5 C 34.6627,59.4023 31.3293,60.069 27.5,59.5C 30.3373,57.5977 33.6707,56.931 37.5,57.5 Z"/></g>
<g><path style="opacity:1" fill="#814646" d="M 23.5,51.5 C 26.8333,51.5 30.1667,51.5 33.5,51.5C 33.5,52.1667 33.5,52.8333 33.5,53.5C 29.6707,54.069 26.3373,53.4023 23.5,51.5 Z"/></g>
<g><path style="opacity:1" fill="#9e6e6a" d="M 51.5,47.5 C 50.1667,47.5 48.8333,47.5 47.5,47.5C 47.62,46.4138 48.2867,45.7472 49.5,45.5C 50.7133,45.7472 51.38,46.4138 51.5,47.5 Z"/></g>
<g><path style="opacity:1" fill="#7d4541" d="M 23.5,39.5 C 24.7773,40.6936 25.4439,42.3603 25.5,44.5C 25.4439,46.6397 24.7773,48.3064 23.5,49.5C 23.5,46.1667 23.5,42.8333 23.5,39.5 Z"/></g>
<g><path style="opacity:1" fill="#a97b77" d="M 15.5,43.5 C 15.8432,45.4832 15.1765,46.8166 13.5,47.5C 13.1568,45.5168 13.8235,44.1834 15.5,43.5 Z"/></g>
<g><path style="opacity:1" fill="#a4797a" d="M 17.5,35.5 C 17.8432,37.4832 17.1765,38.8166 15.5,39.5C 15.1568,37.5168 15.8235,36.1834 17.5,35.5 Z"/></g>
<g><path style="opacity:1" fill="#ab8382" d="M 25.5,33.5 C 28.1667,34.8333 30.8333,36.1667 33.5,37.5C 30.1667,37.5 26.8333,37.5 23.5,37.5C 23.1568,35.5168 23.8235,34.1834 25.5,33.5 Z"/></g>
<g><path style="opacity:1" fill="#eee9e6" d="M 37.5,35.5 C 38.0356,38.6981 37.369,41.3647 35.5,43.5C 35.9746,40.9179 35.3079,38.9179 33.5,37.5C 30.8333,36.1667 28.1667,34.8333 25.5,33.5C 26.6936,32.2227 28.3603,31.5561 30.5,31.5C 33.8983,31.2731 36.2316,32.6064 37.5,35.5 Z"/></g>
<g><path style="opacity:1" fill="#e5d7d4" d="M 49.5,19.5 C 51.3079,20.9179 51.9746,22.9179 51.5,25.5C 48.7154,29.0452 46.382,33.0452 44.5,37.5C 42.7602,36.2842 41.7602,34.6175 41.5,32.5C 44.5855,28.4167 47.2521,24.0833 49.5,19.5 Z"/></g>
<g><path style="opacity:1" fill="#aa7a77" d="M 15.5,19.5 C 17.1765,20.1834 17.8432,21.5168 17.5,23.5C 15.8235,22.8166 15.1568,21.4832 15.5,19.5 Z"/></g>
<g><path style="opacity:1" fill="#e8deda" d="M 37.5,17.5 C 36.1667,17.5 34.8333,17.5 33.5,17.5C 29.6952,15.4781 25.6952,15.1448 21.5,16.5C 19.9724,20.6387 18.9724,24.972 18.5,29.5C 17.5344,27.604 17.2011,25.604 17.5,23.5C 17.8432,21.5168 17.1765,20.1834 15.5,19.5C 15.2786,18.2652 14.6119,17.2652 13.5,16.5C 16.8395,12.5491 21.1729,10.8825 26.5,11.5C 29.5,11.8333 32.5,12.1667 35.5,12.5C 37.0049,13.8415 37.6715,15.5082 37.5,17.5 Z"/></g>
<g><path style="opacity:1" fill="#8e5654" d="M 51.5,15.5 C 52.1667,15.5 52.8333,15.5 53.5,15.5C 53.5,18.1667 53.5,20.8333 53.5,23.5C 55.5,23.5 57.5,23.5 59.5,23.5C 59.5,20.8333 59.5,18.1667 59.5,15.5C 60.1667,15.5 60.8333,15.5 61.5,15.5C 62.1667,16.8333 62.8333,18.1667 63.5,19.5C 62.3065,19.9704 61.6399,20.9704 61.5,22.5C 61.9865,24.3042 62.6532,25.9709 63.5,27.5C 62.1667,28.1667 60.8333,28.8333 59.5,29.5C 59.5,28.1667 59.5,26.8333 59.5,25.5C 56.8333,25.5 54.1667,25.5 51.5,25.5C 51.9746,22.9179 51.3079,20.9179 49.5,19.5C 50.1667,18.1667 50.8333,16.8333 51.5,15.5 Z"/></g>
<g><path style="opacity:1" fill="#640e10" d="M 53.5,15.5 C 55.5,15.5 57.5,15.5 59.5,15.5C 59.5,18.1667 59.5,20.8333 59.5,23.5C 57.5,23.5 55.5,23.5 53.5,23.5C 53.5,20.8333 53.5,18.1667 53.5,15.5 Z"/></g>
<g><path style="opacity:1" fill="#8e5759" d="M 33.5,17.5 C 34.8333,17.5 36.1667,17.5 37.5,17.5C 37.38,18.5862 36.7133,19.2528 35.5,19.5C 34.2867,19.2528 33.62,18.5862 33.5,17.5 Z"/></g>
<g><path style="opacity:1" fill="#b5908d" d="M 53.5,11.5 C 53.9704,12.6935 54.9704,13.3601 56.5,13.5C 58.0296,13.3601 59.0296,12.6935 59.5,11.5C 61.1765,12.1834 61.8432,13.5168 61.5,15.5C 60.8333,15.5 60.1667,15.5 59.5,15.5C 57.5,15.5 55.5,15.5 53.5,15.5C 52.8333,15.5 52.1667,15.5 51.5,15.5C 51.1568,13.5168 51.8235,12.1834 53.5,11.5 Z"/></g>
<g><path style="opacity:1" fill="#eee8e8" d="M 59.5,11.5 C 59.0296,12.6935 58.0296,13.3601 56.5,13.5C 54.9704,13.3601 53.9704,12.6935 53.5,11.5C 53.9704,10.3065 54.9704,9.63985 56.5,9.5C 58.0296,9.63985 59.0296,10.3065 59.5,11.5 Z"/></g>
<g><path style="opacity:1" fill="#863d3d" d="M 9.5,5.5 C 30.8333,5.5 52.1667,5.5 73.5,5.5C 73.5,24.8333 73.5,44.1667 73.5,63.5C 72.8333,63.5 72.1667,63.5 71.5,63.5C 72.1389,53.7734 71.4722,44.4401 69.5,35.5C 69.5,33.5 69.5,31.5 69.5,29.5C 71.4364,25.2853 72.1031,20.6186 71.5,15.5C 70.1667,15.5 68.8333,15.5 67.5,15.5C 67.5,13.5 67.5,11.5 67.5,9.5C 68.9778,9.76202 70.3112,9.42869 71.5,8.5C 51.5111,7.50037 31.5111,7.16704 11.5,7.5C 10.8333,7.5 10.1667,7.5 9.5,7.5C 9.5,6.83333 9.5,6.16667 9.5,5.5 Z"/></g>
<g><path style="opacity:1" fill="#d3c8c0" d="M 7.5,67.5 C 30.1667,67.5 52.8333,67.5 75.5,67.5C 75.5,68.1667 75.5,68.8333 75.5,69.5C 52.8333,69.5 30.1667,69.5 7.5,69.5C 7.5,68.8333 7.5,68.1667 7.5,67.5 Z"/></g>
</svg>
